<?xml version="1.0" standalone="no"?>
<svg viewBox="0 0 200 200" xmlns="http://www.w3.org/2000/svg">
  <path fill="#E8DAFF" d="M45.4,-61.5C60.6,-51.4,75.9,-40.5,83.4,-25.3C90.8,-10,90.4,9.6,84.4,27.2C78.4,44.8,66.8,60.4,51.8,71.8C36.8,83.2,18.4,90.5,0,90.4C-18.3,90.4,-36.7,83,-50.4,71.2C-64.2,59.4,-73.4,43.1,-78.3,25.9C-83.2,8.8,-83.8,-9.3,-78.8,-25.9C-73.8,-42.4,-63.2,-57.4,-49.2,-67.9C-35.1,-78.3,-17.5,-84.1,-1.2,-82.4C15.1,-80.7,30.2,-71.5,45.4,-61.5Z" transform="translate(100 100)" />
</svg>
