<svg id="visual" viewBox="0 0 900 600" width="900" height="600" xmlns="http://www.w3.org/2000/svg" xmlns:xlink="http://www.w3.org/1999/xlink" version="1.1"><path d="M0 382L129 382L129 298L257 298L257 329L386 329L386 262L514 262L514 276L643 276L643 284L771 284L771 285L900 285L900 295L900 601L900 601L771 601L771 601L643 601L643 601L514 601L514 601L386 601L386 601L257 601L257 601L129 601L129 601L0 601Z" fill="#9900ff"></path><path d="M0 370L129 370L129 390L257 390L257 452L386 452L386 434L514 434L514 465L643 465L643 384L771 384L771 423L900 423L900 463L900 601L900 601L771 601L771 601L643 601L643 601L514 601L514 601L386 601L386 601L257 601L257 601L129 601L129 601L0 601Z" fill="#7700c6"></path><path d="M0 491L129 491L129 503L257 503L257 508L386 508L386 480L514 480L514 523L643 523L643 520L771 520L771 448L900 448L900 532L900 601L900 601L771 601L771 601L643 601L643 601L514 601L514 601L386 601L386 601L257 601L257 601L129 601L129 601L0 601Z" fill="#560090"></path></svg>