<svg id="visual" viewBox="0 0 900 600" width="900" height="600" xmlns="http://www.w3.org/2000/svg" xmlns:xlink="http://www.w3.org/1999/xlink" version="1.1"><path d="M0 204L82 204L82 176L164 176L164 251L245 251L245 150L327 150L327 142L409 142L409 261L491 261L491 242L573 242L573 226L655 226L655 204L736 204L736 150L818 150L818 263L900 263L900 184L900 601L900 601L818 601L818 601L736 601L736 601L655 601L655 601L573 601L573 601L491 601L491 601L409 601L409 601L327 601L327 601L245 601L245 601L164 601L164 601L82 601L82 601L0 601Z" fill="#9900ff"></path><path d="M0 204L82 204L82 209L164 209L164 256L245 256L245 250L327 250L327 241L409 241L409 259L491 259L491 214L573 214L573 175L655 175L655 203L736 203L736 258L818 258L818 290L900 290L900 239L900 601L900 601L818 601L818 601L736 601L736 601L655 601L655 601L573 601L573 601L491 601L491 601L409 601L409 601L327 601L327 601L245 601L245 601L164 601L164 601L82 601L82 601L0 601Z" fill="#8e00ec"></path><path d="M0 273L82 273L82 283L164 283L164 357L245 357L245 335L327 335L327 261L409 261L409 305L491 305L491 252L573 252L573 271L655 271L655 242L736 242L736 330L818 330L818 281L900 281L900 247L900 601L900 601L818 601L818 601L736 601L736 601L655 601L655 601L573 601L573 601L491 601L491 601L409 601L409 601L327 601L327 601L245 601L245 601L164 601L164 601L82 601L82 601L0 601Z" fill="#8200d9"></path><path d="M0 321L82 321L82 346L164 346L164 379L245 379L245 396L327 396L327 329L409 329L409 393L491 393L491 357L573 357L573 349L655 349L655 401L736 401L736 335L818 335L818 316L900 316L900 367L900 601L900 601L818 601L818 601L736 601L736 601L655 601L655 601L573 601L573 601L491 601L491 601L409 601L409 601L327 601L327 601L245 601L245 601L164 601L164 601L82 601L82 601L0 601Z" fill="#7700c6"></path><path d="M0 397L82 397L82 396L164 396L164 427L245 427L245 409L327 409L327 414L409 414L409 469L491 469L491 421L573 421L573 412L655 412L655 366L736 366L736 438L818 438L818 413L900 413L900 376L900 601L900 601L818 601L818 601L736 601L736 601L655 601L655 601L573 601L573 601L491 601L491 601L409 601L409 601L327 601L327 601L245 601L245 601L164 601L164 601L82 601L82 601L0 601Z" fill="#6c00b4"></path><path d="M0 491L82 491L82 476L164 476L164 477L245 477L245 509L327 509L327 503L409 503L409 472L491 472L491 430L573 430L573 448L655 448L655 506L736 506L736 446L818 446L818 455L900 455L900 452L900 601L900 601L818 601L818 601L736 601L736 601L655 601L655 601L573 601L573 601L491 601L491 601L409 601L409 601L327 601L327 601L245 601L245 601L164 601L164 601L82 601L82 601L0 601Z" fill="#6100a2"></path><path d="M0 546L82 546L82 492L164 492L164 559L245 559L245 494L327 494L327 559L409 559L409 545L491 545L491 500L573 500L573 560L655 560L655 511L736 511L736 551L818 551L818 503L900 503L900 514L900 601L900 601L818 601L818 601L736 601L736 601L655 601L655 601L573 601L573 601L491 601L491 601L409 601L409 601L327 601L327 601L245 601L245 601L164 601L164 601L82 601L82 601L0 601Z" fill="#560090"></path></svg>