<?xml version="1.0" standalone="no"?>
<svg viewBox="0 0 200 200" xmlns="http://www.w3.org/2000/svg">
  <path fill="#FF0066" d="M50.3,-77.6C65,-68.9,76.5,-54.6,83.4,-38.4C90.2,-22.3,92.2,-4.4,89.9,13C87.6,30.4,80.8,47.3,69.4,59.5C57.9,71.7,41.7,79.1,24.8,83.8C7.9,88.4,-9.5,90.2,-26.1,86.5C-42.7,82.8,-58.4,73.5,-70.1,60.5C-81.7,47.4,-89.4,30.7,-90.8,13.7C-92.2,-3.3,-87.3,-20.5,-79.4,-35.6C-71.4,-50.6,-60.3,-63.6,-46.5,-72.7C-32.8,-81.8,-16.4,-87,0.7,-88.1C17.8,-89.3,35.6,-86.2,50.3,-77.6Z" transform="translate(100 100)" />
</svg>
