<?xml version="1.0" standalone="no"?>
<svg viewBox="0 0 200 200" xmlns="http://www.w3.org/2000/svg">
  <path fill="#E8DAFF" d="M44,-75.6C58.4,-68,72.2,-58.8,80.4,-46C88.6,-33.1,91.1,-16.6,90.8,-0.2C90.5,16.2,87.3,32.4,79.6,46.1C71.9,59.7,59.6,70.8,45.6,78C31.5,85.1,15.8,88.3,-0.2,88.6C-16.1,88.9,-32.2,86.3,-45.9,78.9C-59.5,71.5,-70.7,59.4,-79.2,45.5C-87.7,31.5,-93.4,15.8,-93.4,0C-93.3,-15.7,-87.5,-31.4,-78.8,-45.1C-70.2,-58.7,-58.7,-70.3,-45.1,-78.4C-31.5,-86.5,-15.8,-91,-0.5,-90.2C14.8,-89.4,29.7,-83.3,44,-75.6Z" transform="translate(100 100)" />
</svg>
